# File created by Blade
# Date/Time:  Tue Apr 07 20:13:55 2015
# Frame Rate: 120.000 fps
#------------------------------------------------------
:FULLY-SPECIFIED
:DEGREES
2066
root 3.147550 32.452203 -8.418166 -34.013123 9.974138 -24.024146
Spine 31.071757 -19.813618 7.364585
Head 7.038069 -4.814418 11.249927
LeftShoulder 7.347076 28.213565 37.792241
LeftArm 81.210632 21.689920 -48.101517
LeftForeArm -56.195382 0.000000 85.203190
LeftHand -2.605155 -0.000000 17.659524
LeftHandThumb1 -26.253704 0.000000 33.147579
RightShoulder -1.339936 1.267477 -20.589545
RightArm 22.561710 -23.046406 70.431243
RightForeArm 50.803510 -0.000000 90.080100
RightHand -1.295857 -0.000000 22.286095
RightHandThumb1 -24.326973 -0.000000 -32.862282
LeftUpLeg 16.132998 -1.898714 19.376803
LeftLeg 32.791878 -0.000000 -0.000000
LeftFoot -25.136731 6.692149 -13.923423
LeftToeBase -11.063827 -0.000000 0.000000
RightUpLeg -116.771568 -24.711113 1.526574
RightLeg 5.184860 -0.000000 -0.000000
RightFoot 40.970616 -18.669992 -2.806169
RightToeBase 30.554793 -0.000000 -0.000000
2067
root 3.168586 32.447094 -8.425747 -33.748504 9.931007 -23.666761
Spine 30.859005 -19.636175 7.211940
Head 7.225743 -4.744654 11.179520
LeftShoulder 7.262169 28.353675 37.600533
LeftArm 81.308672 21.765371 -47.895311
LeftForeArm -56.371804 0.000000 85.179282
LeftHand -2.622303 -0.000000 17.492761
LeftHandThumb1 -26.253704 0.000000 33.147579
RightShoulder -1.421623 1.014008 -20.544541
RightArm 22.621893 -23.074975 70.491625
RightForeArm 50.635954 -0.000000 90.129646
RightHand -1.349247 -0.000000 22.302172
RightHandThumb1 -24.326973 -0.000000 -32.862282
LeftUpLeg 16.100203 -1.803573 18.889067
LeftLeg 32.605656 -0.000000 -0.000000
LeftFoot -24.937176 7.325511 -13.500004
LeftToeBase -11.533605 -0.000000 0.000000
RightUpLeg -116.794378 -24.611179 1.063931
RightLeg 6.006469 -0.000000 -0.000000
RightFoot 41.230744 -18.726001 -2.516703
RightToeBase 30.671824 -0.000000 -0.000000
2068
root 3.300672 32.405995 -8.407156 -33.531639 10.716972 -22.333923
Spine 30.719042 -19.658982 5.795212
Head 7.563463 -4.688104 10.943004
LeftShoulder 7.186224 28.552011 37.427760
LeftArm 81.439938 21.936435 -47.688741
LeftForeArm -56.531201 0.000000 85.165842
LeftHand -2.587252 -0.000000 17.597434
LeftHandThumb1 -26.253704 0.000000 33.147579
RightShoulder -1.574725 0.710597 -20.593951
RightArm 22.747606 -23.192257 70.548133
RightForeArm 50.441996 -0.000000 90.119912
RightHand -1.560307 -0.000000 22.411632
RightHandThumb1 -24.326973 -0.000000 -32.862282
LeftUpLeg 16.419608 -2.286951 16.630542
LeftLeg 32.160473 -0.000000 -0.000000
LeftFoot -24.824020 8.685415 -13.052845
LeftToeBase -11.629205 -0.000000 0.000000
RightUpLeg -117.765035 -23.767395 1.972569
RightLeg 6.446638 -0.000000 -0.000000
RightFoot 42.559718 -16.454850 -3.010696
RightToeBase 30.807077 -0.000000 -0.000000
2069
root 3.324577 32.410286 -8.422120 -33.213023 10.604531 -22.088258
Spine 30.408675 -19.534153 5.869552
Head 7.787351 -4.578114 10.699657
LeftShoulder 7.093472 28.682212 37.211711
LeftArm 81.501465 22.058988 -47.551310
LeftForeArm -56.667576 -0.000000 85.152756
LeftHand -2.464415 -0.000000 17.767355
LeftHandThumb1 -26.253704 0.000000 33.147579
RightShoulder -1.710172 0.621867 -20.617098
RightArm 22.865394 -23.363450 70.507238
RightForeArm 50.352127 0.000000 90.041153
RightHand -1.589737 -0.000000 22.425756
RightHandThumb1 -24.326973 -0.000000 -32.862282
LeftUpLeg 16.299707 -2.234698 16.244684
LeftLeg 31.974681 -0.000000 -0.000000
LeftFoot -24.608607 9.316033 -12.570345
LeftToeBase -11.970590 -0.000000 0.000000
RightUpLeg -117.847947 -23.646604 1.801702
RightLeg 7.284184 -0.000000 -0.000000
RightFoot 42.794362 -16.248092 -2.744089
RightToeBase 31.030975 -0.000000 -0.000000
2070
root 3.349810 32.419869 -8.434123 -32.903738 10.436161 -21.870810
Spine 30.092490 -19.445360 5.992467
Head 8.030028 -4.399591 10.384850
LeftShoulder 6.982413 28.842178 36.993152
LeftArm 81.473602 22.212017 -47.522706
LeftForeArm -56.628375 -0.000000 85.191490
LeftHand -2.410673 0.000000 17.808954
LeftHandThumb1 -26.253704 0.000000 33.147579
RightShoulder -1.770250 0.690987 -20.655177
RightArm 22.873653 -23.558366 70.500763
RightForeArm 50.304066 -0.000000 89.962934
RightHand -1.717804 -0.000000 22.522046
RightHandThumb1 -24.326973 -0.000000 -32.862282
LeftUpLeg 16.222985 -2.147674 15.930213
LeftLeg 31.746675 -0.000000 -0.000000
LeftFoot -24.349800 9.826554 -12.207893
LeftToeBase -12.346866 -0.000000 0.000000
RightUpLeg -117.899268 -23.511352 1.629621
RightLeg 8.212126 -0.000000 -0.000000
RightFoot 42.850872 -15.902864 -2.614315
RightToeBase 31.343726 -0.000000 -0.000000
2071
root 3.372426 32.432536 -8.447376 -32.576539 10.251785 -21.685075
Spine 29.751550 -19.370146 6.141080
Head 8.297065 -4.235220 10.064843
LeftShoulder 6.927630 29.014864 36.843890
LeftArm 81.343868 22.343723 -47.594951
LeftForeArm -56.363865 0.000000 85.325183
LeftHand -2.431538 -0.000000 17.710663
LeftHandThumb1 -26.253704 0.000000 33.147579
RightShoulder -1.799383 0.754628 -20.664000
RightArm 22.889836 -23.751550 70.441623
RightForeArm 50.217020 -0.000000 89.966712
RightHand -1.762622 0.000000 22.534625
RightHandThumb1 -24.326973 -0.000000 -32.862282
LeftUpLeg 16.115065 -2.034751 15.691406
LeftLeg 31.524465 -0.000000 -0.000000
LeftFoot -24.095442 10.183672 -11.912150
LeftToeBase -12.683730 -0.000000 0.000000
RightUpLeg -117.898540 -23.493851 1.292716
RightLeg 9.287908 -0.000000 -0.000000
RightFoot 42.631996 -15.666400 -2.160542
RightToeBase 31.658836 -0.000000 -0.000000
2072
root 3.393615 32.449736 -8.457372 -32.235359 10.040049 -21.543456
Spine 29.373435 -19.321296 6.341474
Head 8.582828 -4.074990 9.763980
LeftShoulder 6.858883 29.234138 36.699826
LeftArm 81.218788 22.448199 -47.683271
LeftForeArm -55.958712 -0.000000 85.530492
LeftHand -2.560444 -0.000000 17.325569
LeftHandThumb1 -26.253704 0.000000 33.147579
RightShoulder -1.765595 0.817745 -20.722973
RightArm 22.755972 -23.945218 70.433344
RightForeArm 50.187174 -0.000000 90.156968
RightHand -1.725955 0.000000 22.401789
RightHandThumb1 -24.326973 -0.000000 -32.862282
LeftUpLeg 16.002698 -1.865518 15.552590
LeftLeg 31.265398 -0.000000 -0.000000
LeftFoot -23.825420 10.456915 -11.643986
LeftToeBase -12.991739 -0.000000 0.000000
RightUpLeg -117.937022 -23.485002 0.900731
RightLeg 10.650850 -0.000000 -0.000000
RightFoot 42.203472 -15.462014 -1.992100
RightToeBase 32.008226 -0.000000 -0.000000
